<svg width="40" height="40" viewBox="0 0 40 40" fill="none" xmlns="http://www.w3.org/2000/svg">
<path d="M25.8476 16.3638H26.8137V19.512L31 15.0856L26.8126 10.6581V13.2838H25.8466C21.9679 13.2838 19.7818 16.2956 17.8519 18.951C16.1173 21.3402 14.6179 23.4049 12.1966 23.4049H10V26.4838H12.1976C16.0763 26.4838 18.2624 23.4742 20.1923 20.8166C21.9269 18.4263 23.4263 16.3638 25.8476 16.3638ZM15.6805 18.3042C15.8464 18.0809 16.0123 17.851 16.1813 17.6189C16.6075 17.024 17.0458 16.4386 17.4959 15.8633C16.1078 14.5059 14.4352 13.5049 12.1976 13.5049H10V16.5838H12.1976C13.591 16.5838 14.6777 17.2691 15.6805 18.3042ZM26.8126 23.6238H25.8466C24.3692 23.6238 23.2352 22.8527 22.181 21.712L21.8629 22.1487C21.3998 22.7867 20.9022 23.4698 20.3519 24.1485C21.7757 25.6049 23.5019 26.7049 25.8455 26.7049H26.8115V29.3427L31 24.9152L26.8126 20.4877V23.6238Z" fill="white" fill-opacity="0.65"/>
</svg>
