<svg width="40" height="40" viewBox="0 0 40 40" fill="none" xmlns="http://www.w3.org/2000/svg">
<path d="M18.4211 8.66426C18.8772 8.2217 19.4035 8.00043 20 8.00043C20.5965 8.00043 21.1228 8.2217 21.5789 8.66426C22.0351 9.10681 22.2632 9.61745 22.2632 10.1962C22.2632 10.7749 22.0351 11.2855 21.5789 11.7281C21.1228 12.1706 20.5965 12.3919 20 12.3919C19.4035 12.3919 18.8772 12.1706 18.4211 11.7281C17.9649 11.2855 17.7368 10.7749 17.7368 10.1962C17.7368 9.61745 17.9649 9.10681 18.4211 8.66426ZM18.4211 15.2004C18.8772 14.7579 19.4035 14.5366 20 14.5366C20.5965 14.5366 21.1228 14.7579 21.5789 15.2004C22.0351 15.643 22.2632 16.1536 22.2632 16.7323C22.2632 17.3111 22.0351 17.8217 21.5789 18.2643C21.1228 18.7068 20.5965 18.9281 20 18.9281C19.4035 18.9281 18.8772 18.7068 18.4211 18.2643C17.9649 17.8217 17.7368 17.3111 17.7368 16.7323C17.7368 16.1536 17.9649 15.643 18.4211 15.2004ZM25.1579 15.2004C25.614 14.7579 26.1404 14.5366 26.7368 14.5366C27.3333 14.5366 27.8596 14.7579 28.3158 15.2004C28.7719 15.643 29 16.1536 29 16.7323C29 17.3111 28.7719 17.8217 28.3158 18.2643C27.8596 18.7068 27.3333 18.9281 26.7368 18.9281C26.1404 18.9281 25.614 18.7068 25.1579 18.2643C24.7018 17.8217 24.4737 17.3111 24.4737 16.7323C24.4737 16.1536 24.7018 15.643 25.1579 15.2004ZM25.1579 21.7366C25.614 21.294 26.1404 21.0728 26.7368 21.0728C27.3333 21.0728 27.8596 21.294 28.3158 21.7366C28.7719 22.1792 29 22.6898 29 23.2685C29 23.8472 28.7719 24.3579 28.3158 24.8004C27.8596 25.243 27.3333 25.4643 26.7368 25.4643C26.1404 25.4643 25.614 25.243 25.1579 24.8004C24.7018 24.3579 24.4737 23.8472 24.4737 23.2685C24.4737 22.6898 24.7018 22.1792 25.1579 21.7366ZM18.4211 21.7366C18.8772 21.294 19.4035 21.0728 20 21.0728C20.5965 21.0728 21.1228 21.294 21.5789 21.7366C22.0351 22.1792 22.2632 22.6898 22.2632 23.2685C22.2632 23.8472 22.0351 24.3579 21.5789 24.8004C21.1228 25.243 20.5965 25.4643 20 25.4643C19.4035 25.4643 18.8772 25.243 18.4211 24.8004C17.9649 24.3579 17.7368 23.8472 17.7368 23.2685C17.7368 22.6898 17.9649 22.1792 18.4211 21.7366ZM28.3158 11.7281C27.8596 12.1706 27.3333 12.3919 26.7368 12.3919C26.1404 12.3919 25.614 12.1706 25.1579 11.7281C24.7018 11.2855 24.4737 10.7749 24.4737 10.1962C24.4737 9.61745 24.7018 9.10681 25.1579 8.66426C25.614 8.2217 26.1404 8.00043 26.7368 8.00043C27.3333 8.00043 27.8596 8.2217 28.3158 8.66426C28.7719 9.10681 29 9.61745 29 10.1962C29 10.7749 28.7719 11.2855 28.3158 11.7281ZM11.6842 21.7366C12.1404 21.294 12.6667 21.0728 13.2632 21.0728C13.8596 21.0728 14.386 21.294 14.8421 21.7366C15.2982 22.1792 15.5263 22.6898 15.5263 23.2685C15.5263 23.8472 15.2982 24.3579 14.8421 24.8004C14.386 25.243 13.8596 25.4643 13.2632 25.4643C12.6667 25.4643 12.1404 25.243 11.6842 24.8004C11.2281 24.3579 11 23.8472 11 23.2685C11 22.6898 11.2281 22.1792 11.6842 21.7366ZM11.6842 15.2004C12.1404 14.7579 12.6667 14.5366 13.2632 14.5366C13.8596 14.5366 14.386 14.7579 14.8421 15.2004C15.2982 15.643 15.5263 16.1536 15.5263 16.7323C15.5263 17.3111 15.2982 17.8217 14.8421 18.2643C14.386 18.7068 13.8596 18.9281 13.2632 18.9281C12.6667 18.9281 12.1404 18.7068 11.6842 18.2643C11.2281 17.8217 11 17.3111 11 16.7323C11 16.1536 11.2281 15.643 11.6842 15.2004ZM11.6842 8.66426C12.1404 8.2217 12.6667 8.00043 13.2632 8.00043C13.8596 8.00043 14.386 8.2217 14.8421 8.66426C15.2982 9.10681 15.5263 9.61745 15.5263 10.1962C15.5263 10.7749 15.2982 11.2855 14.8421 11.7281C14.386 12.1706 13.8596 12.3919 13.2632 12.3919C12.6667 12.3919 12.1404 12.1706 11.6842 11.7281C11.2281 11.2855 11 10.7749 11 10.1962C11 9.61745 11.2281 9.10681 11.6842 8.66426ZM18.4211 28.2728C18.8772 27.8302 19.4035 27.6089 20 27.6089C20.5965 27.6089 21.1228 27.8302 21.5789 28.2728C22.0351 28.7153 22.2632 29.226 22.2632 29.8047C22.2632 30.3834 22.0351 30.894 21.5789 31.3366C21.1228 31.7792 20.5965 32.0004 20 32.0004C19.4035 32.0004 18.8772 31.7792 18.4211 31.3366C17.9649 30.894 17.7368 30.3834 17.7368 29.8047C17.7368 29.226 17.9649 28.7153 18.4211 28.2728Z" fill="white" fill-opacity="0.65"/>
</svg>
