<svg width="40" height="40" viewBox="0 0 40 40" fill="none" xmlns="http://www.w3.org/2000/svg">
<path d="M25.9463 19.3782H28C28 21.5115 27.2774 23.3881 25.8322 25.0078C24.4251 26.5881 22.7136 27.5362 20.698 27.8523V32.0004H18.302V27.8523C16.2864 27.5362 14.5559 26.5881 13.1107 25.0078C11.7036 23.3881 11 21.5115 11 19.3782H13.0537C13.0537 21.235 13.6812 22.7757 14.9362 24.0004C16.2293 25.1856 17.7506 25.7782 19.5 25.7782C21.2494 25.7782 22.7517 25.1856 24.0067 24.0004C25.2998 22.7757 25.9463 21.235 25.9463 19.3782ZM22.0671 22.0449C21.3445 22.7955 20.4888 23.1708 19.5 23.1708C18.5112 23.1708 17.6555 22.7955 16.9329 22.0449C16.2103 21.2943 15.849 20.4054 15.849 19.3782V11.793C15.849 10.7659 16.2103 9.87697 16.9329 9.12635C17.6555 8.37574 18.5112 8.00043 19.5 8.00043C20.4888 8.00043 21.3445 8.37574 22.0671 9.12635C22.7897 9.87697 23.151 10.7659 23.151 11.793V19.3782C23.151 20.4054 22.7897 21.2943 22.0671 22.0449Z" fill="white" fill-opacity="0.65"/>
</svg>
